HIERARCHY
ROOT Hips
{
	OFFSET 0.000000 0.000000 0.000000 
	CHANNELS 6 Xposition Yposition Zposition Zrotation Yrotation Xrotation
	JOINT LeftUpLeg
	{
		OFFSET 1.363060 -1.794630 0.839290 
		CHANNELS 3 Zrotation Yrotation Xrotation
		JOINT LeftLeg
		{
			OFFSET 2.448110 -6.726130 0.000000 
			CHANNELS 3 Zrotation Yrotation Xrotation
			JOINT LeftFoot
			{
				OFFSET 2.562200 -7.039590 0.000000 
				CHANNELS 3 Zrotation Yrotation Xrotation
				JOINT LeftToeBase
				{
					OFFSET 0.157640 -0.433110 2.322550 
					CHANNELS 3 Zrotation Yrotation Xrotation
					End Site
					{
						OFFSET 0.000000 0.000000 0.000000 
					}
				}
			}
		}
	}
	JOINT RightUpLeg
	{
		OFFSET -1.305520 -1.794630 0.839290 
		CHANNELS 3 Zrotation Yrotation Xrotation
		JOINT RightLeg
		{
			OFFSET -2.542530 -6.985550 0.000000 
			CHANNELS 3 Zrotation Yrotation Xrotation
			JOINT RightFoot
			{
				OFFSET -2.568260 -7.056230 0.000000 
				CHANNELS 3 Zrotation Yrotation Xrotation
				JOINT RightToeBase
				{
					OFFSET -0.164730 -0.452590 2.363150 
					CHANNELS 3 Zrotation Yrotation Xrotation
					End Site
					{
						OFFSET 0.000000 0.000000 0.000000 
					}
				}
			}
		}
	}
	JOINT Spine
	{
		OFFSET 0.028270 2.035590 -0.193380 
		CHANNELS 3 Zrotation Yrotation Xrotation
		JOINT Spine1
		{
			OFFSET 0.056720 2.048850 -0.042750 
			CHANNELS 3 Zrotation Yrotation Xrotation
			JOINT Neck1
			{
				OFFSET -0.054170 1.746240 0.172020 
				CHANNELS 3 Zrotation Yrotation Xrotation
				JOINT Head
				{
					OFFSET 0.104070 1.761360 -0.123970 
					CHANNELS 3 Zrotation Yrotation Xrotation
					End Site
					{
						OFFSET 0.000000 0.000000 0.000000 
					}
				}
			}
			JOINT LeftArm
			{
				OFFSET 3.362410 1.200890 -0.311210 
				CHANNELS 3 Zrotation Yrotation Xrotation
				JOINT LeftForeArm
				{
					OFFSET 4.983000 -0.000000 -0.000000 
					CHANNELS 3 Zrotation Yrotation Xrotation
					JOINT LeftHand
					{
						OFFSET 3.483560 -0.000000 -0.000000 
						CHANNELS 3 Zrotation Yrotation Xrotation
						JOINT LeftHandIndex1
						{
							OFFSET 0.715260 -0.000000 -0.000000 
							CHANNELS 3 Zrotation Yrotation Xrotation
							End Site
							{
								OFFSET 0.000000 0.000000 0.000000 
							}
						}
					}
				}
			}
			JOINT RightArm
			{
				OFFSET -3.136600 1.374050 -0.404650 
				CHANNELS 3 Zrotation Yrotation Xrotation
				JOINT RightForeArm
				{
					OFFSET -5.241900 -0.000000 -0.000000 
					CHANNELS 3 Zrotation Yrotation Xrotation
					JOINT RightHand
					{
						OFFSET -3.444170 -0.000000 -0.000000 
						CHANNELS 3 Zrotation Yrotation Xrotation
						JOINT RightHandIndex1
						{
							OFFSET -0.622530 -0.000000 -0.000000 
							CHANNELS 3 Zrotation Yrotation Xrotation
							End Site
							{
								OFFSET 0.000000 0.000000 0.000000 
							}
						}
					}
				}
			}
		}
	}
}
MOTION
Frames: 7
Frame Time: 0.041667
-0.806632 17.786005 -11.754685 -5.135316 3.803040 2.708828 -12.458796 -5.208417 -25.966745 9.971224 17.665995 59.224417 0.504778 -2.856410 -2.637595 0.008000 0.578500 1.589700 29.448280 6.185012 -8.585165 -3.045127 -10.377365 28.675177 -0.262477 -3.928952 -14.959680 -1.297000 -7.215400 20.355000 1.458063 1.862950 -0.413395 6.451331 1.160628 -4.778588 3.930145 -4.875640 22.390613 4.388900 -3.520700 12.970400 -91.141492 7.509159 18.045614 17.193253 -27.711045 -3.614108 0.720983 1.028709 7.346428 -7.125000 0.000000 0.000000 83.571792 -3.201824 5.864633 -16.824530 25.552607 -3.916353 0.222088 0.676216 -14.605193 7.125000 0.000000 0.000000 
-0.821175 17.767630 -11.604738 -5.707246 3.500909 2.644083 -11.623688 -5.154884 -26.877801 9.639766 17.472215 58.135731 0.473936 -2.337644 -3.557553 0.007300 0.552200 1.517300 30.364233 6.795249 -7.623467 -2.994672 -10.339354 28.480073 -0.187830 -4.759367 -15.165725 -1.048800 -6.512500 18.279000 1.589774 2.144742 -0.321221 6.518807 1.290753 -4.545868 3.689529 -4.883847 22.341618 4.257000 -3.530500 12.946600 -91.288364 7.586815 18.287646 17.484543 -28.145181 -3.760505 0.719163 1.017815 7.273410 -7.125000 0.000000 0.000000 83.302905 -2.764268 6.169775 -17.057292 25.885691 -4.033575 0.211858 0.691791 -14.779416 7.125000 0.000000 0.000000 
-0.809286 17.764289 -11.465500 -5.475565 3.601743 2.812754 -11.904625 -5.847126 -27.652516 9.239991 17.246781 56.816923 0.360079 -1.082372 -4.584593 0.002300 0.308000 0.846300 30.054044 6.193996 -7.300865 -2.950455 -10.279639 28.240571 -0.251385 -4.370143 -15.516340 -1.283000 -7.178000 20.243700 1.520867 2.219826 -0.379125 6.413845 1.331500 -4.619065 3.812608 -4.975540 22.207232 4.326300 -3.571500 12.857500 -91.359777 7.724869 18.622150 17.717957 -28.462471 -3.860979 0.715072 1.036627 7.264630 -7.125000 0.000000 0.000000 83.083680 -2.502148 6.300307 -17.210512 26.105328 -4.106709 0.215097 0.689691 -14.919343 7.125000 0.000000 0.000000 
-0.809679 17.754364 -11.327148 -5.554348 3.546032 2.923121 -11.721009 -6.399439 -28.432915 8.826072 16.988263 55.414251 0.056553 1.109497 -3.045422 0.383100 3.974900 11.006100 30.235224 6.114867 -6.748137 -2.897091 -10.212186 27.972374 -0.280800 -4.385588 -15.996029 -1.482200 -7.692100 21.782600 1.519700 2.314286 -0.377343 6.344428 1.372215 -4.581220 4.055840 -5.085509 22.079612 4.463600 -3.619000 12.811400 -91.406961 7.606101 18.814911 17.859321 -28.658577 -3.921789 0.713000 1.049544 7.049014 -7.125000 0.000000 0.000000 82.886080 -2.237723 6.654186 -17.444396 26.439974 -4.224258 0.218629 0.691058 -15.253572 7.125000 0.000000 0.000000 
-0.813707 17.743850 -11.192332 -5.861323 3.486386 2.990526 -11.211106 -6.829519 -29.154430 8.380460 16.686764 53.864106 -0.171215 2.788528 -1.919098 1.062000 6.552000 18.394900 30.731411 6.176272 -6.095661 -2.836131 -10.133478 27.666724 -0.260326 -4.722496 -16.242425 -1.394600 -7.471100 21.118700 1.531016 2.405976 -0.347718 6.173386 1.405173 -4.540709 4.247525 -5.152126 21.977225 4.542300 -3.626200 12.808000 -91.362601 7.540257 19.050570 18.115054 -29.013840 -4.041832 0.713015 1.053276 6.648760 -7.125000 0.000000 0.000000 82.793715 -1.831773 6.976791 -17.663216 26.746681 -4.338488 0.215477 0.697602 -15.440991 7.125000 0.000000 0.000000 
-0.814493 17.735694 -11.054962 -6.022083 3.464280 3.051276 -10.813372 -7.267090 -29.676034 7.889359 16.342852 52.201644 0.242766 0.273937 -6.190086 0.005200 0.464000 1.275000 31.028113 6.062236 -5.401041 -2.753895 -10.004866 27.205937 -0.228194 -5.030001 -16.273033 -1.158400 -6.833000 19.221500 1.483756 2.491253 -0.441633 5.957743 1.450742 -4.825961 4.342122 -5.134877 21.956405 4.562600 -3.596700 12.758600 -91.283851 7.817329 19.177482 18.316773 -29.274605 -4.137850 0.708391 1.053099 6.634142 -7.125000 0.000000 0.000000 82.781996 -1.702005 7.243164 -17.880030 27.037050 -4.454125 0.202649 0.712983 -15.482626 7.125000 0.000000 0.000000 
-0.810956 17.735007 -10.911008 -5.993121 3.483138 3.183842 -10.661380 -7.831734 -30.152344 7.378596 15.961575 50.396776 0.158890 0.980286 -6.551503 0.010700 0.667800 1.835200 31.082749 5.821253 -4.704668 -2.644703 -9.817417 26.553583 -0.209216 -5.215485 -16.295704 -1.022700 -6.433500 18.047400 1.403684 2.556134 -0.513965 5.743767 1.483915 -4.972725 4.333508 -5.140225 22.058463 4.534600 -3.589700 12.803300 -91.217659 7.867746 19.323536 18.383721 -29.353796 -4.165313 0.702510 1.061934 6.775679 -7.125000 0.000000 0.000000 82.719419 -1.552262 7.684616 -18.173932 27.429416 -4.611099 0.184271 0.739429 -15.783494 7.125000 0.000000 0.000000 
